<svg width="106" height="65" viewBox="0 0 106 65" fill="none" xmlns="http://www.w3.org/2000/svg">
<path d="M11.1663 55.9665L25.3026 61.6211C30.0572 63.5229 35.131 64.5 40.2518 64.5H62.206C68.8574 64.5 75.2983 62.1681 80.4081 57.9099C93.6682 46.8598 94.1038 26.6398 81.3318 15.0289L79.5523 13.4112C74.9601 9.23644 69.2045 6.56059 63.0527 5.74036L53.5702 4.47603C46.8455 3.5794 40.2278 6.74912 36.7115 12.551C34.047 16.9475 29.5435 19.9094 24.4512 20.6144L15.3272 21.8778C6.54192 23.0942 0 30.6043 0 39.4735C0 46.7371 4.42226 53.2689 11.1663 55.9665Z" fill="#2B2D68"/>
<path d="M10.8961 51.6724L24.7081 57.1933C29.3467 59.0474 34.2963 60 39.2918 60H60.7444C67.2303 60 73.5112 57.7272 78.4953 53.5768C91.442 42.7956 91.8671 23.0571 79.3967 11.7284L77.6609 10.1515C73.1815 6.08225 67.5686 3.47429 61.5698 2.67503L52.2946 1.4392C45.7325 0.564875 39.2749 3.65702 35.8419 9.31743C33.2403 13.6072 28.8447 16.4968 23.875 17.1844L14.9525 18.4189C6.38219 19.6047 0 26.9308 0 35.5828C0 42.6696 4.31552 49.0421 10.8961 51.6724Z" fill="#6668B9"/>
<path fill-rule="evenodd" clip-rule="evenodd" d="M44.6451 3.41245C40.2229 2.96819 37.2871 3.9415 34.3039 6.23402C23.9242 14.2081 28.9309 38.1937 29.8884 40.2827C31.3082 43.3812 51.404 52.0799 54.9603 52.4281C58.5178 52.7763 72.0921 17.2117 72.0921 17.2117C72.0921 17.2117 53.3076 4.28289 44.6451 3.41245Z" fill="#9A5F5F"/>
<path fill-rule="evenodd" clip-rule="evenodd" d="M66.3903 16.483C50.3472 23.0881 53.8289 51.8622 54.9605 52.4286C56.092 52.9938 70.3694 45.5273 70.9346 44.7868C71.501 44.0475 81.6534 10.1989 66.3903 16.483Z" fill="#C27D78"/>
<path fill-rule="evenodd" clip-rule="evenodd" d="M65.8011 16.7474C69.0296 15.2145 71.1481 15.5514 72.5181 16.891L72.5249 16.8876C72.5249 16.8876 70.4054 13.2781 66.5302 13.2781C62.9569 13.2781 52.263 17.125 50.5651 36.8443C50.5651 36.8443 40.7134 32.1869 37.3379 30.4019C33.9624 28.6158 27.5008 24.6435 27.5008 24.6435C27.5008 24.6435 26.1443 2.49827 44.645 3.41279C44.645 3.41279 41.9354 1.71827 39.2675 1.80192C22.8242 2.314 24.8387 26.8761 24.8387 26.8761C24.8387 26.8761 30.4535 31.6635 37.8974 35.3204C46.0434 39.3222 55.3977 42.3823 55.3977 42.3823C54.0909 41.5989 54.4255 22.1497 65.8011 16.7474Z" fill="#F1A969"/>
<path fill-rule="evenodd" clip-rule="evenodd" d="M27.5009 24.6431L29.409 23.9592C29.409 23.9592 27.5009 7.67871 44.645 3.41245C26.1443 2.49793 27.5009 24.6431 27.5009 24.6431Z" fill="#F7BF6D"/>
<path fill-rule="evenodd" clip-rule="evenodd" d="M50.5653 36.8442L50.7914 34.7065L29.4092 23.9595L27.5011 24.6434C27.5011 24.6434 33.9626 28.6157 37.3381 30.4018C40.7125 32.1868 50.5653 36.8442 50.5653 36.8442Z" fill="#FBDF89"/>
<path fill-rule="evenodd" clip-rule="evenodd" d="M69.7531 30.5207C62.8959 34.5078 57.142 36.486 57.142 36.486C57.142 36.486 58.1808 37.4763 59.0332 37.4785C61.4455 37.4831 71.139 31.9168 71.5154 30.9525L69.7531 30.5207Z" fill="#F7BF6D"/>
<path fill-rule="evenodd" clip-rule="evenodd" d="M70.2826 20.6591C70.2826 20.6591 71.2322 25.2046 69.7536 30.5211L71.5159 30.9529C71.5159 30.9529 73.6581 22.6611 70.2826 20.6591Z" fill="#F1A969"/>
<path fill-rule="evenodd" clip-rule="evenodd" d="M71.5153 30.9528C71.1084 31.6502 59.8357 38.079 58.7686 37.4381C57.7512 36.8276 59.734 24.3793 66.3945 20.9835C74.0441 17.0835 71.9223 30.2553 71.5153 30.9528ZM65.801 16.7477C54.4254 22.1489 53.8738 41.5449 55.1794 42.3295C56.5495 43.1502 73.2879 34.2322 73.8113 33.338C74.3335 32.4427 78.2075 10.8559 65.801 16.7477Z" fill="#FBDF89"/>
<path fill-rule="evenodd" clip-rule="evenodd" d="M43.139 37.7175L42.4664 44.178C42.4664 44.178 43.9383 43.7439 44.4334 43.1787C44.9274 42.6123 44.7476 38.3958 44.7476 38.3958L43.139 37.7175Z" fill="#FBDF89"/>
<path fill-rule="evenodd" clip-rule="evenodd" d="M34.4833 33.5041C34.4833 33.5041 34.3285 39.5869 34.9378 40.5444C35.5471 41.5019 41.8571 44.6128 42.4664 44.1776C43.0758 43.7424 43.1391 37.7172 43.1391 37.7172L34.4833 33.5041Z" fill="#F1A969"/>
<path fill-rule="evenodd" clip-rule="evenodd" d="M39.4327 41.3038L39.2032 39.4703C39.3965 39.4341 39.5808 39.3651 39.7243 39.2216C40.1516 38.7943 40.094 38.0414 39.5932 37.5406C39.0924 37.041 38.3407 36.9822 37.9123 37.4095C37.4838 37.8379 37.5426 38.5908 38.0434 39.0905C38.0728 39.1198 38.109 39.1323 38.1395 39.1594L37.5946 40.3599L39.4327 41.3038Z" fill="#4E433A"/>
<path fill-rule="evenodd" clip-rule="evenodd" d="M29.7539 18.3495L29.5301 19.7275L48.7825 28.4907L29.7539 18.3495Z" fill="#7F5253"/>
<path fill-rule="evenodd" clip-rule="evenodd" d="M31.9226 12.4048L31.3043 13.5918L50.7919 22.4612L31.9226 12.4048Z" fill="#7F5253"/>
<path fill-rule="evenodd" clip-rule="evenodd" d="M36.2067 7.40005L35.1294 8.33153L54.4881 17.1421L36.2067 7.40005Z" fill="#7F5253"/>
<path fill-rule="evenodd" clip-rule="evenodd" d="M41.4799 4.41187L40.1177 4.99517L59.1396 13.8227L41.4799 4.41187Z" fill="#7F5253"/>
</svg>
