<svg width="142" height="54" viewBox="0 0 142 54" fill="none" xmlns="http://www.w3.org/2000/svg">
<path d="M37.9749 9.33484L21.7181 11.8278C17.1028 12.5356 12.9101 14.9193 9.94154 18.5235C4.16712 25.5342 4.21581 35.7119 9.99024 42.7226C12.9174 46.2765 17.0508 48.6818 21.5909 49.4476L35.6957 51.8269C40.3147 52.606 45.0116 52.8172 49.6819 52.4555L97.9053 48.7217C101.859 48.4155 105.751 47.5571 109.467 46.1715L128.658 39.0156C136.421 36.1209 141.071 28.1593 139.779 19.9756C138.691 13.0864 133.6 7.51005 126.838 5.80211L113.028 2.3142C107.007 0.793406 100.71 0.732503 94.6602 2.13656L78.652 5.852C70.7332 7.68992 62.6305 8.61789 54.5012 8.61789H47.3801C44.2314 8.61789 41.0872 8.85756 37.9749 9.33484Z" fill="#333E48" stroke="#333E48"/>
<path d="M34.6272 31.876C33.8352 31.876 33.2072 31.808 32.7432 31.672C32.2792 31.536 31.9352 31.344 31.7112 31.096C31.4872 30.856 31.3392 30.572 31.2672 30.244C31.2032 29.908 31.1712 29.548 31.1712 29.164C31.1712 28.524 31.1872 27.792 31.2192 26.968C31.2592 26.144 31.3072 25.26 31.3632 24.316C31.4272 23.364 31.4952 22.38 31.5672 21.364L33.7512 21.58C33.6712 22.196 33.5992 22.828 33.5352 23.476C33.4792 24.116 33.4312 24.74 33.3912 25.348C33.3512 25.956 33.3192 26.508 33.2952 27.004C33.2712 27.5 33.2512 27.916 33.2352 28.252C33.2272 28.58 33.2232 28.792 33.2232 28.888C33.2232 29.168 33.2552 29.38 33.3192 29.524C33.3832 29.66 33.5112 29.752 33.7032 29.8C33.8952 29.848 34.1752 29.872 34.5432 29.872C35.0072 29.872 35.5312 29.844 36.1152 29.788C36.6992 29.724 37.2912 29.632 37.8912 29.512C38.4912 29.392 39.0392 29.248 39.5352 29.08L40.0032 31.144C39.4592 31.28 38.8712 31.404 38.2392 31.516C37.6152 31.628 36.9912 31.716 36.3672 31.78C35.7432 31.844 35.1632 31.876 34.6272 31.876ZM40.7841 23.248C40.7841 23.176 40.7801 23.104 40.7721 23.032C40.7721 22.952 40.7721 22.864 40.7721 22.768C40.7721 22.512 40.7801 22.24 40.7961 21.952C40.8121 21.664 40.8281 21.42 40.8441 21.22L42.9801 21.256C42.9561 21.528 42.9281 21.836 42.8961 22.18C42.8721 22.524 42.8561 22.88 42.8481 23.248H40.7841ZM40.7361 31.84C40.7121 31.344 40.6961 30.816 40.6881 30.256C40.6801 29.688 40.6761 29.12 40.6761 28.552C40.6761 27.808 40.6841 27.084 40.7001 26.38C40.7161 25.676 40.7361 25.036 40.7601 24.46L42.8241 24.448C42.7921 24.816 42.7721 25.272 42.7641 25.816C42.7561 26.352 42.7521 26.916 42.7521 27.508C42.7521 28.092 42.7561 28.668 42.7641 29.236C42.7721 29.804 42.7801 30.32 42.7881 30.784C42.8041 31.24 42.8161 31.592 42.8241 31.84H40.7361ZM44.0082 31.828C44.0082 31.34 44.0082 30.716 44.0082 29.956C44.0162 29.188 44.0242 28.336 44.0322 27.4C44.0482 26.464 44.0682 25.48 44.0922 24.448C44.1242 23.416 44.1602 22.384 44.2002 21.352L46.2402 21.34C46.2082 21.796 46.1762 22.352 46.1442 23.008C46.1122 23.664 46.0842 24.368 46.0602 25.12C46.6122 24.608 47.2442 24.352 47.9562 24.352C48.4442 24.352 48.8482 24.44 49.1682 24.616C49.4962 24.792 49.7602 25.024 49.9602 25.312C50.1602 25.592 50.3122 25.9 50.4162 26.236C50.5202 26.572 50.5922 26.904 50.6322 27.232C50.6722 27.552 50.6922 27.836 50.6922 28.084C50.6922 28.612 50.6882 29.136 50.6802 29.656C50.6722 30.176 50.6642 30.632 50.6562 31.024C50.6562 31.416 50.6562 31.692 50.6562 31.852L48.5562 31.864C48.5882 31.552 48.6082 31.192 48.6162 30.784C48.6322 30.376 48.6402 29.956 48.6402 29.524C48.6482 29.084 48.6522 28.668 48.6522 28.276C48.6522 26.98 48.3482 26.332 47.7402 26.332C47.5562 26.332 47.3522 26.38 47.1282 26.476C46.9042 26.572 46.6882 26.724 46.4802 26.932C46.2802 27.14 46.1202 27.416 46.0002 27.76C45.9922 28.288 45.9882 28.8 45.9882 29.296C45.9882 29.752 45.9922 30.18 46.0002 30.58C46.0162 30.972 46.0282 31.368 46.0362 31.768L44.0082 31.828ZM54.8829 31.948C54.2829 31.948 53.7389 31.792 53.2509 31.48C52.7629 31.176 52.3749 30.764 52.0869 30.244C51.8069 29.716 51.6669 29.128 51.6669 28.48C51.6669 27.872 51.7789 27.324 52.0029 26.836C52.2269 26.34 52.5309 25.916 52.9149 25.564C53.3069 25.212 53.7509 24.944 54.2469 24.76C54.7429 24.568 55.2629 24.472 55.8069 24.472C56.2629 24.472 56.7109 24.536 57.1509 24.664C57.1829 24.496 57.2109 24.328 57.2349 24.16L59.2869 24.508C59.2309 24.66 59.1749 24.888 59.1189 25.192C59.0629 25.496 59.0149 25.836 58.9749 26.212C58.9429 26.588 58.9149 26.964 58.8909 27.34C58.8669 27.716 58.8549 28.056 58.8549 28.36C58.8549 28.608 58.8709 28.852 58.9029 29.092C58.9429 29.324 59.0229 29.516 59.1429 29.668C59.2629 29.812 59.4469 29.884 59.6949 29.884H59.8629L59.5629 31.972C59.0349 31.972 58.5989 31.88 58.2549 31.696C57.9109 31.52 57.6349 31.28 57.4269 30.976C57.0829 31.36 56.6909 31.616 56.2509 31.744C55.8109 31.88 55.3549 31.948 54.8829 31.948ZM53.6349 28.72C53.6749 29.104 53.8309 29.412 54.1029 29.644C54.3829 29.868 54.7349 29.98 55.1589 29.98C55.5669 29.98 55.9069 29.872 56.1789 29.656C56.4509 29.432 56.6749 29.128 56.8509 28.744C56.8429 28.616 56.8389 28.484 56.8389 28.348C56.8389 28.068 56.8469 27.78 56.8629 27.484C56.8789 27.188 56.8989 26.896 56.9229 26.608C56.5869 26.48 56.2349 26.416 55.8669 26.416C55.4349 26.416 55.0469 26.504 54.7029 26.68C54.3669 26.848 54.1029 27.084 53.9109 27.388C53.7189 27.692 53.6229 28.044 53.6229 28.444C53.6229 28.492 53.6229 28.54 53.6229 28.588C53.6229 28.636 53.6269 28.68 53.6349 28.72ZM64.2131 31.948C63.7331 31.948 63.3531 31.844 63.0731 31.636C62.7931 31.436 62.5891 31.156 62.4611 30.796C62.3331 30.436 62.2491 30.024 62.2091 29.56C62.1771 29.096 62.1611 28.608 62.1611 28.096C62.1611 27.568 62.1811 27.02 62.2211 26.452C61.6851 26.524 61.1691 26.616 60.6731 26.728L60.3011 24.844C60.9651 24.668 61.6731 24.54 62.4251 24.46C62.4811 24.052 62.5411 23.624 62.6051 23.176C62.6691 22.72 62.7411 22.24 62.8211 21.736L64.8851 21.916C64.7891 22.332 64.7051 22.748 64.6331 23.164C64.5611 23.572 64.4971 23.968 64.4411 24.352C64.8891 24.352 65.3091 24.364 65.7011 24.388C66.1011 24.404 66.4691 24.436 66.8051 24.484L66.5651 26.368C66.2851 26.336 65.9931 26.316 65.6891 26.308C65.3931 26.292 65.0931 26.284 64.7891 26.284C64.6051 26.284 64.4211 26.288 64.2371 26.296C64.1891 26.88 64.1571 27.38 64.1411 27.796C64.1331 28.212 64.1291 28.508 64.1291 28.684C64.1291 29.124 64.1531 29.44 64.2011 29.632C64.2571 29.824 64.3451 29.92 64.4651 29.92C64.6011 29.92 64.7531 29.876 64.9211 29.788C65.0891 29.692 65.2531 29.564 65.4131 29.404C65.5811 29.244 65.7211 29.072 65.8331 28.888L66.7571 30.82C65.9651 31.572 65.1171 31.948 64.2131 31.948ZM70.8783 31.864C70.8063 31.416 70.7543 30.868 70.7223 30.22C70.6903 29.572 70.6743 28.872 70.6743 28.12C70.6743 27.344 70.6863 26.548 70.7103 25.732C70.7423 24.916 70.7783 24.132 70.8183 23.38C70.8663 22.62 70.9183 21.948 70.9743 21.364L73.0623 21.4C72.9743 21.96 72.9023 22.584 72.8463 23.272C72.7983 23.952 72.7583 24.66 72.7263 25.396C73.2943 25.316 73.9103 25.256 74.5743 25.216C75.2383 25.176 75.8783 25.156 76.4943 25.156C76.7903 25.156 77.0743 25.164 77.3463 25.18C77.3383 24.58 77.3263 24.02 77.3103 23.5C77.2943 22.98 77.2743 22.54 77.2503 22.18C77.2263 21.82 77.1983 21.572 77.1663 21.436L79.2303 21.304C79.3023 21.976 79.3583 22.78 79.3983 23.716C79.4463 24.652 79.4703 25.644 79.4703 26.692C79.4703 27.54 79.4543 28.404 79.4223 29.284C79.3903 30.156 79.3343 30.996 79.2543 31.804H77.2503C77.2823 31.548 77.3063 31.2 77.3223 30.76C77.3383 30.312 77.3503 29.808 77.3583 29.248C77.3663 28.68 77.3703 28.088 77.3703 27.472C77.3703 27.36 77.3703 27.244 77.3703 27.124C77.2183 27.124 77.0623 27.124 76.9023 27.124C76.7503 27.116 76.5943 27.112 76.4343 27.112C75.8023 27.112 75.1623 27.136 74.5143 27.184C73.8743 27.224 73.2623 27.284 72.6783 27.364C72.6783 27.62 72.6783 27.876 72.6783 28.132C72.6783 28.836 72.6823 29.496 72.6903 30.112C72.7063 30.728 72.7303 31.288 72.7623 31.792L70.8783 31.864ZM83.9103 31.948C83.3103 31.948 82.7663 31.792 82.2783 31.48C81.7903 31.176 81.4023 30.764 81.1143 30.244C80.8343 29.716 80.6943 29.128 80.6943 28.48C80.6943 27.872 80.8063 27.324 81.0303 26.836C81.2543 26.34 81.5583 25.916 81.9423 25.564C82.3343 25.212 82.7783 24.944 83.2743 24.76C83.7703 24.568 84.2903 24.472 84.8343 24.472C85.2903 24.472 85.7383 24.536 86.1783 24.664C86.2103 24.496 86.2383 24.328 86.2623 24.16L88.3143 24.508C88.2583 24.66 88.2023 24.888 88.1463 25.192C88.0903 25.496 88.0423 25.836 88.0023 26.212C87.9703 26.588 87.9423 26.964 87.9183 27.34C87.8943 27.716 87.8823 28.056 87.8823 28.36C87.8823 28.608 87.8983 28.852 87.9303 29.092C87.9703 29.324 88.0503 29.516 88.1703 29.668C88.2903 29.812 88.4743 29.884 88.7223 29.884H88.8903L88.5903 31.972C88.0623 31.972 87.6263 31.88 87.2823 31.696C86.9383 31.52 86.6623 31.28 86.4543 30.976C86.1103 31.36 85.7183 31.616 85.2783 31.744C84.8383 31.88 84.3823 31.948 83.9103 31.948ZM82.6623 28.72C82.7023 29.104 82.8583 29.412 83.1303 29.644C83.4103 29.868 83.7623 29.98 84.1863 29.98C84.5943 29.98 84.9343 29.872 85.2063 29.656C85.4783 29.432 85.7023 29.128 85.8783 28.744C85.8703 28.616 85.8663 28.484 85.8663 28.348C85.8663 28.068 85.8743 27.78 85.8903 27.484C85.9063 27.188 85.9263 26.896 85.9503 26.608C85.6143 26.48 85.2623 26.416 84.8943 26.416C84.4623 26.416 84.0743 26.504 83.7303 26.68C83.3943 26.848 83.1303 27.084 82.9383 27.388C82.7463 27.692 82.6503 28.044 82.6503 28.444C82.6503 28.492 82.6503 28.54 82.6503 28.588C82.6503 28.636 82.6543 28.68 82.6623 28.72ZM93.1685 31.996C92.6245 31.996 92.1205 31.932 91.6565 31.804C91.1925 31.676 90.7725 31.512 90.3965 31.312C90.0205 31.112 89.6845 30.9 89.3885 30.676L90.4685 28.936C90.8045 29.248 91.1285 29.488 91.4405 29.656C91.7525 29.824 92.0765 29.94 92.4125 30.004C92.7565 30.068 93.1285 30.1 93.5285 30.1C93.8725 30.1 94.1485 30.056 94.3565 29.968C94.5645 29.872 94.6685 29.752 94.6685 29.608C94.6685 29.488 94.5685 29.396 94.3685 29.332C94.1685 29.26 93.9125 29.2 93.6005 29.152C93.2885 29.096 92.9605 29.028 92.6165 28.948C92.1285 28.82 91.6725 28.672 91.2485 28.504C90.8245 28.336 90.4805 28.108 90.2165 27.82C89.9605 27.532 89.8325 27.148 89.8325 26.668C89.8325 26.284 89.9245 25.948 90.1085 25.66C90.2925 25.364 90.5365 25.12 90.8405 24.928C91.1525 24.728 91.5045 24.58 91.8965 24.484C92.2885 24.388 92.6925 24.34 93.1085 24.34C93.8285 24.34 94.4485 24.428 94.9685 24.604C95.4965 24.772 96.0005 24.996 96.4805 25.276L95.3885 26.932C95.1485 26.764 94.8725 26.62 94.5605 26.5C94.2565 26.372 93.9485 26.276 93.6365 26.212C93.3325 26.14 93.0485 26.104 92.7845 26.104C92.4965 26.104 92.2685 26.148 92.1005 26.236C91.9405 26.324 91.8605 26.448 91.8605 26.608C91.8605 26.704 91.9605 26.796 92.1605 26.884C92.3685 26.964 92.7605 27.072 93.3365 27.208C93.6805 27.288 94.0445 27.372 94.4285 27.46C94.8125 27.54 95.1725 27.656 95.5085 27.808C95.8525 27.952 96.1285 28.164 96.3365 28.444C96.5525 28.716 96.6605 29.08 96.6605 29.536C96.6605 30.304 96.3525 30.904 95.7365 31.336C95.1205 31.776 94.2645 31.996 93.1685 31.996ZM97.5498 23.248C97.5498 23.176 97.5458 23.104 97.5378 23.032C97.5378 22.952 97.5378 22.864 97.5378 22.768C97.5378 22.512 97.5458 22.24 97.5618 21.952C97.5778 21.664 97.5938 21.42 97.6098 21.22L99.7458 21.256C99.7218 21.528 99.6938 21.836 99.6618 22.18C99.6378 22.524 99.6218 22.88 99.6138 23.248H97.5498ZM97.5018 31.84C97.4778 31.344 97.4618 30.816 97.4538 30.256C97.4458 29.688 97.4418 29.12 97.4418 28.552C97.4418 27.808 97.4498 27.084 97.4658 26.38C97.4818 25.676 97.5018 25.036 97.5258 24.46L99.5898 24.448C99.5578 24.816 99.5378 25.272 99.5298 25.816C99.5218 26.352 99.5178 26.916 99.5178 27.508C99.5178 28.092 99.5218 28.668 99.5298 29.236C99.5378 29.804 99.5458 30.32 99.5538 30.784C99.5698 31.24 99.5818 31.592 99.5898 31.84H97.5018ZM103.09 31.948C102.65 31.948 102.286 31.852 101.998 31.66C101.718 31.476 101.494 31.22 101.326 30.892C101.166 30.564 101.046 30.188 100.966 29.764C100.894 29.34 100.846 28.888 100.822 28.408C100.806 27.92 100.798 27.432 100.798 26.944C100.798 26.52 100.81 26.056 100.834 25.552C100.858 25.04 100.886 24.524 100.918 24.004C100.958 23.476 100.998 22.98 101.038 22.516C101.086 22.052 101.13 21.648 101.17 21.304L103.342 21.328C103.278 21.736 103.218 22.2 103.162 22.72C103.106 23.232 103.058 23.752 103.018 24.28C102.986 24.808 102.958 25.296 102.934 25.744C102.918 26.192 102.91 26.548 102.91 26.812C102.91 27.54 102.922 28.112 102.946 28.528C102.978 28.944 103.022 29.24 103.078 29.416C103.142 29.584 103.226 29.668 103.33 29.668C103.466 29.668 103.614 29.584 103.774 29.416C103.934 29.24 104.09 29.044 104.242 28.828L105.262 30.856C105.014 31.128 104.718 31.376 104.374 31.6C104.03 31.832 103.602 31.948 103.09 31.948Z" fill="white"/>
</svg>
